<svg width="870" height="430" fill="none" xmlns="http://www.w3.org/2000/svg"><g filter="url(#filter0_d)"><rect x="50" y="30" width="770" height="330" rx="30" fill="#405DF6"/><mask id="a" maskUnits="userSpaceOnUse" x="50" y="30" width="770" height="330"><rect x="50" y="30" width="770" height="330" rx="30" fill="#fff"/></mask><g mask="url(#a)"><path d="M651 105c0-16.569 13.431-30 30-30h149v240H681c-16.569 0-30-13.431-30-30V105z" fill="#fff"/><mask id="b" maskUnits="userSpaceOnUse" x="651" y="75" width="179" height="240"><path d="M651 105c0-16.569 13.431-30 30-30h149v240H681c-16.569 0-30-13.431-30-30V105z" fill="#fff"/></mask><g mask="url(#b)"><rect x="668" y="128" width="8" height="28" rx="3" fill="#83FFE6"/><rect x="732" y="118" width="8" height="38" rx="3" fill="#83FFE6"/><rect x="780" y="107" width="8" height="49" rx="3" fill="#83FFE6"/><rect x="684" y="96" width="8" height="60" rx="3" fill="#83FFE6"/><rect x="716" y="138" width="8" height="18" rx="3" fill="#83FFE6"/><rect x="764" y="147" width="8" height="9" rx="3" fill="#83FFE6"/><rect x="796" y="133" width="8" height="23" rx="3" fill="#83FFE6"/><rect x="812" y="133" width="8" height="23" rx="3" fill="#83FFE6"/><rect width="8" height="23" rx="3" transform="matrix(1 0 0 -1 700 179)" fill="#FFAA83"/><rect width="8" height="23" rx="3" transform="matrix(1 0 0 -1 748 179)" fill="#FFAA83"/><path fill-rule="evenodd" clip-rule="evenodd" d="M651.34 307s23.944-2.713 34.113-12.811c10.169-10.098 11.835-36.654 24.969-39.765 13.134-3.11 18.25 33.449 30.272 26.684 12.022-6.766 20.644-97.008 45.213-100.466 24.568-3.458 25.674 101.763 59.581 85.718 20.9-9.89 27.847-57.718 34.852-94.36 4.359-22.805 0 143 0 143h-229v-8z" fill="#FFD3E6"/><path d="M651.34 307s23.944-2.713 34.113-12.811c10.169-10.098 11.835-36.654 24.969-39.765 13.134-3.11 18.25 33.449 30.272 26.684 12.022-6.766 20.644-97.008 45.213-100.466 24.568-3.458 25.674 101.763 59.581 85.718 20.9-9.89 27.847-57.718 34.852-94.36" stroke="#FF83B8" stroke-width="8" stroke-linecap="round" stroke-linejoin="round"/></g></g></g><path opacity=".5" d="M435 194l212 .46" stroke="#FF83B8" stroke-width="8" stroke-linecap="round" stroke-linejoin="round"/><path opacity=".5" d="M435 183h106l28.23 23h45.504l14.23-11.594H647" stroke="#83FFE6" stroke-width="8" stroke-linecap="round" stroke-linejoin="round"/><path opacity=".5" d="M435 206h106l28.23-23h45.504l14.23 11.594H647" stroke="#FFAA83" stroke-width="8" stroke-linecap="round" stroke-linejoin="round"/><path opacity=".5" d="M141 194.46l294-.46" stroke="#FF83B8" stroke-width="8" stroke-linecap="round" stroke-linejoin="round"/><path opacity=".5" d="M141 107.455S187.74 169.77 268.352 182C348.964 194.23 436 194.455 436 194.455" stroke="#83FFE6" stroke-width="8" stroke-linecap="round" stroke-linejoin="round"/><path opacity=".5" d="M141 281.455s46.74-62.315 127.352-74.545C348.964 194.68 436 194.455 436 194.455" stroke="#FFAA83" stroke-width="8" stroke-linecap="round" stroke-linejoin="round"/><path opacity=".5" d="M257 281s21.024-59.993 69-75.5c49.5-16 110-11.5 110-11.5" stroke="#83D2FF" stroke-width="8" stroke-linecap="round" stroke-linejoin="round"/><g filter="url(#filter1_d)"><circle cx="258" cy="288" r="30" fill="#83D2FF"/></g><path d="M271.5 285.5v-6.25c0-1.378-1.122-2.5-2.5-2.5h-22a2.503 2.503 0 00-2.5 2.5v12.5c0 1.378 1.122 2.5 2.5 2.5h22c1.378 0 2.5-1.122 2.5-2.5a1.25 1.25 0 012.5 0c0 2.757-2.243 5-5 5h-9.75v2.492h4.375a1.25 1.25 0 010 2.5h-11.25a1.25 1.25 0 110-2.5h4.375v-2.492H247c-2.757 0-5-2.243-5-5v-12.5c0-2.757 2.243-5 5-5h22c2.757 0 5 2.243 5 5v6.25a1.25 1.25 0 01-2.5 0zm-17.062-3.125c0-.689.56-1.25 1.25-1.25a1.25 1.25 0 000-2.5 3.754 3.754 0 00-3.75 3.75V283c0 .689-.561 1.25-1.25 1.25a1.25 1.25 0 100 2.5c.689 0 1.25.561 1.25 1.25v.625a3.754 3.754 0 003.75 3.75 1.25 1.25 0 000-2.5c-.69 0-1.25-.561-1.25-1.25V288a3.73 3.73 0 00-.959-2.5 3.73 3.73 0 00.959-2.5v-.625zm7.5 6.25c0 .689-.561 1.25-1.25 1.25a1.25 1.25 0 100 2.5 3.755 3.755 0 003.75-3.75V288c0-.689.56-1.25 1.25-1.25a1.25 1.25 0 000-2.5c-.69 0-1.25-.561-1.25-1.25v-.625a3.755 3.755 0 00-3.75-3.75 1.25 1.25 0 100 2.5c.689 0 1.25.561 1.25 1.25V283c0 .96.362 1.836.958 2.5a3.73 3.73 0 00-.958 2.5v.625z" fill="#fff"/><path opacity=".5" d="M255 108s21.024 59.631 69 75.044c49.5 15.904 110 11.431 110 11.431" stroke="#6735F4" stroke-width="8" stroke-linecap="round" stroke-linejoin="round"/><g filter="url(#filter2_d)"><circle cx="143" cy="108" r="30" fill="#83FFE6"/></g><path d="M154.311 114.176a1.26 1.26 0 001.26-1.26V97.04c0-2.78-2.261-5.04-5.04-5.04h-11.442a4.96 4.96 0 00-3.5 1.459l-4.161 4.198a4.897 4.897 0 00-1.428 3.469v18.09a5.046 5.046 0 005.04 5.04h15.491a5.046 5.046 0 005.04-5.04 1.26 1.26 0 10-2.52 0c0 1.389-1.13 2.52-2.52 2.52H135.04a2.524 2.524 0 01-2.52-2.52v-16.569h3.717a4.415 4.415 0 004.41-4.41 1.26 1.26 0 10-2.52 0c0 1.042-.848 1.89-1.89 1.89h-3.501c.117-.255.278-.491.482-.696l4.161-4.198a2.423 2.423 0 011.71-.713h11.442c1.39 0 2.52 1.13 2.52 2.52v15.876c0 .696.564 1.26 1.26 1.26z" fill="#fff"/><g filter="url(#filter3_d)"><circle cx="258" cy="108" r="30" fill="#6735F4"/></g><g clip-path="url(#clip0)"><path d="M264.318 111.062l.761-3.694a1.288 1.288 0 00-1.263-1.549h-10.371a4.28 4.28 0 00-4.195-3.421 1.289 1.289 0 100 2.578c.867 0 1.595.65 1.694 1.512a.91.91 0 00.021.127l.974 4.495.002.009a3.846 3.846 0 003.773 3.02h4.818a3.886 3.886 0 003.786-3.077zm-2.524-.526a1.296 1.296 0 01-1.262 1.025h-4.818a1.283 1.283 0 01-1.257-1.003l-.468-2.161h8.246l-.441 2.139zm8.339-18.247h-25.266A3.872 3.872 0 00241 96.156v21.399a5.162 5.162 0 005.156 5.156h22.688a5.162 5.162 0 005.156-5.156 1.289 1.289 0 10-2.578 0 2.582 2.582 0 01-2.578 2.578h-22.688a2.582 2.582 0 01-2.578-2.578v-17.467h27.844v11.021a1.289 1.289 0 102.578 0V96.156a3.872 3.872 0 00-3.867-3.867zm-5.221 2.578a1.29 1.29 0 011.289 1.29 1.29 1.29 0 01-1.289 1.288 1.29 1.29 0 01-1.289-1.289c0-.71.578-1.289 1.289-1.289zm6.445 1.29a1.29 1.29 0 01-2.578-.001c0-.71.579-1.289 1.289-1.289a1.29 1.29 0 011.289 1.29zm-27.779 0c0-.712.578-1.29 1.289-1.29h16.4a3.848 3.848 0 00.023 2.643h-17.712v-1.354zm11.924 19.271a1.289 1.289 0 110 2.578 1.289 1.289 0 010-2.578zm5.221 0a1.289 1.289 0 110 2.578 1.289 1.289 0 010-2.578z" fill="#fff"/></g><g filter="url(#filter4_d)"><circle cx="143" cy="198" r="30" fill="#FF83B8"/></g><path d="M157.37 197.955a5.781 5.781 0 00-5.254-6.471 10.188 10.188 0 00-9.051-5.484c-2.542 0-4.978.941-6.859 2.648a10.194 10.194 0 00-3.144 5.525 7.667 7.667 0 00-4.013 2.289 7.662 7.662 0 00-2.049 5.225c0 4.238 3.448 7.686 7.686 7.686h17.892a6.684 6.684 0 003.131-.777 1.26 1.26 0 10-1.185-2.224 4.097 4.097 0 01-1.946.481h-17.897a5.171 5.171 0 01-5.161-5.166c0-2.674 2.085-4.936 4.747-5.149a1.26 1.26 0 001.153-1.127 7.66 7.66 0 017.645-6.891 7.673 7.673 0 016.419 3.454 5.805 5.805 0 00-3.458 5.303 1.26 1.26 0 102.52 0 3.28 3.28 0 013.276-3.276c.028 0 .056-.002.083-.004a3.256 3.256 0 012.88 4.082 1.26 1.26 0 00.415 1.296 4.211 4.211 0 011.536 3.257 1.26 1.26 0 102.52 0c0-1.76-.679-3.426-1.886-4.677z" fill="#fff"/><g filter="url(#filter5_d)"><circle cx="143" cy="288" r="30" fill="#FFAA83"/></g><path fill-rule="evenodd" clip-rule="evenodd" d="M157.623 283.088a4.9 4.9 0 011.633 3.654v2.772a4.9 4.9 0 01-1.633 3.654 4.9 4.9 0 011.633 3.654v2.52a1.26 1.26 0 11-2.52 0v-2.52a2.397 2.397 0 00-2.394-2.394 1.26 1.26 0 110-2.52 2.397 2.397 0 002.394-2.394v-2.772a2.397 2.397 0 00-2.394-2.394 1.26 1.26 0 110-2.52 2.397 2.397 0 002.394-2.394v-2.52a2.397 2.397 0 00-2.394-2.394h-22.428a2.397 2.397 0 00-2.394 2.394v2.52a2.397 2.397 0 002.394 2.394l.025.001.017.001.035-.001.049-.001h16.002a1.26 1.26 0 110 2.52H132.04a2.524 2.524 0 00-2.52 2.52v2.646a2.397 2.397 0 002.394 2.394h16.128a1.26 1.26 0 110 2.52h-16.128a2.397 2.397 0 00-2.394 2.394v2.52a2.397 2.397 0 002.394 2.394h22.428a1.26 1.26 0 110 2.52h-22.428a4.92 4.92 0 01-4.914-4.914v-2.52a4.9 4.9 0 011.633-3.654 4.9 4.9 0 01-1.633-3.654v-2.646a5.03 5.03 0 011.672-3.746 4.902 4.902 0 01-1.672-3.688v-2.52a4.92 4.92 0 014.914-4.914h22.428a4.92 4.92 0 014.914 4.914v2.52a4.9 4.9 0 01-1.633 3.654zm-25.583 14.994a1.26 1.26 0 102.52 0 1.26 1.26 0 00-2.52 0zm1.26-8.757a1.26 1.26 0 110-2.52 1.26 1.26 0 010 2.52zm-1.26-11.151a1.26 1.26 0 102.52 0 1.26 1.26 0 00-2.52 0zm5.67 21.168a1.26 1.26 0 110-2.52 1.26 1.26 0 010 2.52zm-1.26-11.277a1.26 1.26 0 102.52 0 1.26 1.26 0 00-2.52 0zm1.26-8.631a1.26 1.26 0 110-2.52 1.26 1.26 0 010 2.52z" fill="#fff"/><circle cx="435" cy="195" r="40" fill="#fff" stroke="#AFBCFF" stroke-width="6"/><path fill-rule="evenodd" clip-rule="evenodd" d="M419 184.66a2.66 2.66 0 015.32 0v20.099a2.66 2.66 0 01-5.32 0V184.66zm6.502 7.685a2.66 2.66 0 015.321 0v12.414a2.66 2.66 0 01-5.321 0v-12.414zm9.163 4.433a2.66 2.66 0 00-2.66 2.66v5.321a2.66 2.66 0 005.32 0v-5.321a2.66 2.66 0 00-2.66-2.66zm3.842-4.433a2.66 2.66 0 015.321 0v12.414a2.66 2.66 0 01-5.321 0v-12.414zM447.67 182a2.66 2.66 0 00-2.66 2.66v20.099a2.66 2.66 0 005.32 0V184.66a2.66 2.66 0 00-2.66-2.66z" fill="#405DF6"/><path fill-rule="evenodd" clip-rule="evenodd" d="M416.371 265.851a1.4 1.4 0 01-1.297.874h-1.64c-.57 0-1.084-.346-1.298-.874l-6.258-15.455a1.015 1.015 0 01.941-1.396 4.058 4.058 0 013.775 2.568l3.647 9.241 3.616-9.207a4.099 4.099 0 013.816-2.602c.728 0 1.224.736.951 1.41l-6.253 15.441zm10.375-.526a1.4 1.4 0 01-1.4 1.4h-.924a1.4 1.4 0 01-1.4-1.4v-8.599a2.482 2.482 0 012.483-2.483c.685 0 1.241.556 1.241 1.241v9.841zm6.396 1.675c1.349 0 2.487-.395 3.416-1.186.929-.79 1.394-1.777 1.394-2.958 0-1.065-.308-1.91-.925-2.534-.617-.624-1.517-1.095-2.701-1.411l-1.134-.299c-.691-.2-1.036-.5-1.036-.899 0-.433.337-.649 1.011-.649.36 0 .807.216 1.182.448.465.286 1.072.295 1.491-.055l.42-.352c.665-.557.662-1.572-.072-2.033-.862-.539-2.001-1.104-2.996-1.104-1.365 0-2.487.354-3.367 1.061-.88.707-1.336 1.635-1.369 2.784-.033 1.015.251 1.88.851 2.596.6.716 1.484 1.215 2.651 1.498l.814.2c.609.15 1.012.295 1.209.437.197.141.296.32.296.536 0 .466-.378.699-1.135.699-.542 0-1.145-.272-1.641-.567-.615-.366-1.422-.363-1.948.122l-.334.308c-.633.583-.587 1.587.151 2.03 1.033.621 2.49 1.328 3.772 1.328zm14.018-1.123c-.79.749-1.743 1.123-2.861 1.123-1.612 0-2.861-.512-3.749-1.535-.888-1.024-1.332-2.393-1.332-4.107v-5.874c0-.685.556-1.241 1.241-1.241a2.482 2.482 0 012.483 2.483v3.983c0 1.914.715 2.871 2.146 2.871.789 0 1.48-.383 2.072-1.149v-5.705a2.482 2.482 0 012.483-2.483c.685 0 1.241.556 1.241 1.241v9.841a1.4 1.4 0 01-1.4 1.4h-1.475a.849.849 0 01-.849-.848zM458.365 267c1.184 0 2.154-.358 2.911-1.074 0 .442.357.799.799.799h1.525a1.4 1.4 0 001.4-1.4v-9.682a1.4 1.4 0 00-1.4-1.4h-1.55a.773.773 0 00-.774.774c-.773-.699-1.743-1.049-2.911-1.049-1.775 0-3.231.637-4.365 1.91-1.135 1.273-1.702 2.809-1.702 4.606 0 1.798.567 3.333 1.702 4.606 1.134 1.273 2.59 1.91 4.365 1.91zm-1.442-4.319c.517.599 1.188.899 2.01.899.97 0 1.751-.4 2.343-1.199v-3.819c-.609-.783-1.39-1.174-2.343-1.174-.822 0-1.493.3-2.01.899-.518.599-.777 1.332-.777 2.197 0 .866.259 1.598.777 2.197z" fill="#fff"/><defs><filter id="filter0_d" x="0" y="0" width="870" height="430" filterUnits="userSpaceOnUse" color-interpolation-filters="sRGB"><feFlood flood-opacity="0" result="BackgroundImageFix"/><feColorMatrix in="SourceAlpha" values="0 0 0 0 0 0 0 0 0 0 0 0 0 0 0 0 0 0 127 0"/><feOffset dy="20"/><feGaussianBlur stdDeviation="25"/><feColorMatrix values="0 0 0 0 0 0 0 0 0 0 0 0 0 0 0 0 0 0 0.1 0"/><feBlend in2="BackgroundImageFix" result="effect1_dropShadow"/><feBlend in="SourceGraphic" in2="effect1_dropShadow" result="shape"/></filter><filter id="filter1_d" x="178" y="208" width="160" height="160" filterUnits="userSpaceOnUse" color-interpolation-filters="sRGB"><feFlood flood-opacity="0" result="BackgroundImageFix"/><feColorMatrix in="SourceAlpha" values="0 0 0 0 0 0 0 0 0 0 0 0 0 0 0 0 0 0 127 0"/><feOffset/><feGaussianBlur stdDeviation="25"/><feColorMatrix values="0 0 0 0 0.513726 0 0 0 0 1 0 0 0 0 0.901961 0 0 0 0.3 0"/><feBlend in2="BackgroundImageFix" result="effect1_dropShadow"/><feBlend in="SourceGraphic" in2="effect1_dropShadow" result="shape"/></filter><filter id="filter2_d" x="63" y="28" width="160" height="160" filterUnits="userSpaceOnUse" color-interpolation-filters="sRGB"><feFlood flood-opacity="0" result="BackgroundImageFix"/><feColorMatrix in="SourceAlpha" values="0 0 0 0 0 0 0 0 0 0 0 0 0 0 0 0 0 0 127 0"/><feOffset/><feGaussianBlur stdDeviation="25"/><feColorMatrix values="0 0 0 0 0.513726 0 0 0 0 1 0 0 0 0 0.901961 0 0 0 0.3 0"/><feBlend in2="BackgroundImageFix" result="effect1_dropShadow"/><feBlend in="SourceGraphic" in2="effect1_dropShadow" result="shape"/></filter><filter id="filter3_d" x="178" y="28" width="160" height="160" filterUnits="userSpaceOnUse" color-interpolation-filters="sRGB"><feFlood flood-opacity="0" result="BackgroundImageFix"/><feColorMatrix in="SourceAlpha" values="0 0 0 0 0 0 0 0 0 0 0 0 0 0 0 0 0 0 127 0"/><feOffset/><feGaussianBlur stdDeviation="25"/><feColorMatrix values="0 0 0 0 0.403922 0 0 0 0 0.207843 0 0 0 0 0.956863 0 0 0 0.3 0"/><feBlend in2="BackgroundImageFix" result="effect1_dropShadow"/><feBlend in="SourceGraphic" in2="effect1_dropShadow" result="shape"/></filter><filter id="filter4_d" x="63" y="118" width="160" height="160" filterUnits="userSpaceOnUse" color-interpolation-filters="sRGB"><feFlood flood-opacity="0" result="BackgroundImageFix"/><feColorMatrix in="SourceAlpha" values="0 0 0 0 0 0 0 0 0 0 0 0 0 0 0 0 0 0 127 0"/><feOffset/><feGaussianBlur stdDeviation="25"/><feColorMatrix values="0 0 0 0 1 0 0 0 0 0.513726 0 0 0 0 0.721569 0 0 0 0.3 0"/><feBlend in2="BackgroundImageFix" result="effect1_dropShadow"/><feBlend in="SourceGraphic" in2="effect1_dropShadow" result="shape"/></filter><filter id="filter5_d" x="63" y="208" width="160" height="160" filterUnits="userSpaceOnUse" color-interpolation-filters="sRGB"><feFlood flood-opacity="0" result="BackgroundImageFix"/><feColorMatrix in="SourceAlpha" values="0 0 0 0 0 0 0 0 0 0 0 0 0 0 0 0 0 0 127 0"/><feOffset/><feGaussianBlur stdDeviation="25"/><feColorMatrix values="0 0 0 0 1 0 0 0 0 0.666667 0 0 0 0 0.513726 0 0 0 0.3 0"/><feBlend in2="BackgroundImageFix" result="effect1_dropShadow"/><feBlend in="SourceGraphic" in2="effect1_dropShadow" result="shape"/></filter><clipPath id="clip0"><path fill="#fff" transform="translate(241 91)" d="M0 0h33v33H0z"/></clipPath></defs></svg>