<svg width="70" height="70" viewBox="0 0 70 70" fill="none" xmlns="http://www.w3.org/2000/svg">
<rect opacity="0.1" width="70" height="70" rx="10" fill="#405DF6"/>
<path d="M32.9436 35.9336C33.8126 37.0953 35.1432 37.8223 36.5903 37.9259C38.0373 38.0295 39.458 37.4996 40.4836 36.4736L43.4836 33.4736C45.3785 31.5117 45.3514 28.3931 43.4227 26.4645C41.494 24.5358 38.3755 24.5087 36.4136 26.4036L34.6936 28.1136" stroke="#405DF6" stroke-width="2" stroke-linecap="round" stroke-linejoin="round"/>
<path d="M36.9436 33.9336C36.0746 32.7719 34.7439 32.0449 33.2969 31.9413C31.8499 31.8376 30.4292 32.3676 29.4036 33.3936L26.4036 36.3936C24.5087 38.3555 24.5358 41.474 26.4645 43.4027C28.3931 45.3314 31.5117 45.3585 33.4736 43.4636L35.1836 41.7536" stroke="#405DF6" stroke-width="2" stroke-linecap="round" stroke-linejoin="round"/>
</svg>
