<svg width="854" height="535" viewBox="0 0 854 535" fill="none" xmlns="http://www.w3.org/2000/svg">
<path fill-rule="evenodd" clip-rule="evenodd" d="M4.6604 530.173C4.6604 530.173 43.3655 520.581 118 472.029C192.634 423.476 199.701 368.615 244.27 360.816C288.84 353.017 303.419 405.783 349.726 378.954C396.034 352.125 463.286 146.754 556.969 135.66C650.651 124.566 686.106 306.823 748.44 315.799C810.773 324.774 857 174.876 857 174.876V530.174L4.6604 530.173Z" fill="#B4FFF0"/>
<path fill-rule="evenodd" clip-rule="evenodd" d="M4.6604 530.173C4.6604 530.173 93.7835 520.078 131.631 482.5C169.479 444.923 175.682 346.101 224.567 334.527C273.452 322.954 292.493 458.999 337.239 433.822C381.985 408.645 414.076 72.8323 505.52 59.966C596.964 47.0997 601.078 438.652 727.282 378.942C805.071 342.139 830.929 164.162 857 27.8072C873.226 -57.0568 872.384 530.174 872.384 530.174L4.6604 530.173Z" fill="#06135D"/>
<path fill-rule="evenodd" clip-rule="evenodd" d="M4.6604 530.173C4.6604 530.173 256.16 525.77 273.267 524.162C290.375 522.553 306.119 503.092 319 500.619C331.881 498.147 331.881 517.983 349.957 515.396C368.034 512.81 469.41 446.607 519 446.607C568.59 446.607 660.685 516.546 701 515.396C741.315 514.247 795.753 465.612 812.935 462.98C830.117 460.347 854 491.957 854 491.957V530.174L4.6604 530.173Z" fill="#FFE7C7"/>
<path d="M4.6604 530.173C4.6604 530.173 43.3655 520.581 118 472.029C192.634 423.476 199.701 368.615 244.27 360.816C288.84 353.017 303.419 405.783 349.726 378.954C396.034 352.125 463.286 146.754 556.969 135.66C650.652 124.566 686.106 306.823 748.44 315.799C810.773 324.774 857 174.876 857 174.876" stroke="#83FFE6" stroke-width="8" stroke-linecap="round" stroke-linejoin="round"/>
<path d="M4.6604 530.173C4.6604 530.173 256.16 525.77 273.267 524.162C290.375 522.553 306.119 503.092 319 500.619C331.881 498.147 331.881 517.983 349.957 515.396C368.034 512.81 469.41 446.607 519 446.607C568.59 446.607 660.685 516.546 701 515.396C741.315 514.247 795.753 465.612 812.935 462.98C830.117 460.347 854 491.957 854 491.957" stroke="#FFCB83" stroke-width="8" stroke-linecap="round" stroke-linejoin="round"/>
<path d="M4.6604 530.173C4.6604 530.173 93.7835 520.078 131.631 482.5C169.479 444.923 175.682 346.101 224.567 334.527C273.452 322.954 292.493 458.999 337.239 433.822C381.985 408.645 414.076 72.8323 505.52 59.966C596.964 47.0997 601.078 438.652 727.282 378.942C805.071 342.139 830.929 164.162 857 27.8071" stroke="#405DF6" stroke-width="8" stroke-linecap="round" stroke-linejoin="round"/>
<path d="M519 530.173V0.173462" stroke="#D5D5D5" stroke-dasharray="9"/>
<path d="M719 530.173V0.173462" stroke="#D5D5D5" stroke-dasharray="9"/>
<path d="M319 530.173V0.173462" stroke="#D5D5D5" stroke-dasharray="9"/>
<path d="M118 530.173L117.5 184.5" stroke="#D5D5D5" stroke-dasharray="9"/>
<g clip-path="url(#clip0)">
<g filter="url(#filter0_d)">
<rect x="333" y="27.1735" width="160" height="66" rx="20" fill="white"/>
<path d="M333 45.1735C335.209 45.1735 337 46.9643 337 49.1735V71.1735C337 73.3826 335.209 75.1735 333 75.1735V45.1735Z" fill="#405DF6"/>
</g>
<path d="M354.119 51H355.655V47.4205H357.743C360.104 47.4205 361.273 45.9936 361.273 44.1143C361.273 42.2401 360.114 40.8182 357.748 40.8182H354.119V51ZM355.655 46.1179V42.1357H357.584C359.105 42.1357 359.727 42.9609 359.727 44.1143C359.727 45.2678 359.105 46.1179 357.604 46.1179H355.655ZM366.15 51.1541C367.815 51.1541 368.994 50.3338 369.332 49.0909L367.925 48.8374C367.656 49.5582 367.01 49.9261 366.165 49.9261C364.892 49.9261 364.037 49.1009 363.997 47.6293H369.426V47.1023C369.426 44.343 367.776 43.2642 366.045 43.2642C363.918 43.2642 362.516 44.8849 362.516 47.2315C362.516 49.603 363.898 51.1541 366.15 51.1541ZM364.002 46.5156C364.062 45.4318 364.847 44.4922 366.055 44.4922C367.209 44.4922 367.964 45.3473 367.969 46.5156H364.002ZM372.562 46.4659C372.562 45.2479 373.308 44.5518 374.342 44.5518C375.351 44.5518 375.963 45.2131 375.963 46.3217V51H377.449V46.1428C377.449 44.2536 376.41 43.2642 374.849 43.2642C373.7 43.2642 372.95 43.7962 372.597 44.6065H372.502V43.3636H371.075V51H372.562V46.4659ZM379.443 43.3636V51.4773C379.443 52.1882 379.149 52.576 378.443 52.576C378.359 52.576 378.294 52.576 378.205 52.571V53.8537H378.493C380.089 53.8736 380.929 53.0185 380.929 51.4872V43.3636H379.443ZM380.178 42.1854C380.691 42.1854 381.118 41.7876 381.118 41.3004C381.118 40.8132 380.691 40.4105 380.178 40.4105C379.661 40.4105 379.239 40.8132 379.239 41.3004C379.239 41.7876 379.661 42.1854 380.178 42.1854ZM387.766 47.8331C387.771 49.1307 386.807 49.7472 385.972 49.7472C385.052 49.7472 384.415 49.081 384.415 48.0419V43.3636H382.929V48.2209C382.929 50.1151 383.968 51.0994 385.435 51.0994C386.583 51.0994 387.364 50.4929 387.717 49.6776H387.796V51H389.258V43.3636H387.766V47.8331ZM393.477 51.169C394.74 51.169 395.451 50.5277 395.735 49.956H395.794V51H397.246V45.929C397.246 43.7067 395.496 43.2642 394.283 43.2642C392.901 43.2642 391.628 43.821 391.131 45.2131L392.528 45.5312C392.747 44.9893 393.303 44.4673 394.303 44.4673C395.262 44.4673 395.754 44.9695 395.754 45.8345V45.8693C395.754 46.4112 395.198 46.4013 393.825 46.5604C392.379 46.7294 390.897 47.1072 390.897 48.8423C390.897 50.3438 392.026 51.169 393.477 51.169ZM393.801 49.9759C392.96 49.9759 392.354 49.598 392.354 48.8622C392.354 48.0668 393.06 47.7834 393.92 47.669C394.402 47.6044 395.546 47.4751 395.759 47.2614V48.2457C395.759 49.1506 395.039 49.9759 393.801 49.9759ZM400.712 40.8182H399.226V51H400.712V40.8182ZM404.934 51.169C406.197 51.169 406.908 50.5277 407.192 49.956H407.251V51H408.703V45.929C408.703 43.7067 406.953 43.2642 405.74 43.2642C404.358 43.2642 403.085 43.821 402.588 45.2131L403.985 45.5312C404.204 44.9893 404.76 44.4673 405.76 44.4673C406.719 44.4673 407.211 44.9695 407.211 45.8345V45.8693C407.211 46.4112 406.655 46.4013 405.282 46.5604C403.836 46.7294 402.354 47.1072 402.354 48.8423C402.354 50.3438 403.483 51.169 404.934 51.169ZM405.258 49.9759C404.417 49.9759 403.811 49.598 403.811 48.8622C403.811 48.0668 404.517 47.7834 405.377 47.669C405.859 47.6044 407.003 47.4751 407.216 47.2614V48.2457C407.216 49.1506 406.496 49.9759 405.258 49.9759ZM412.169 46.4659C412.169 45.2479 412.915 44.5518 413.949 44.5518C414.958 44.5518 415.57 45.2131 415.57 46.3217V51H417.056V46.1428C417.056 44.2536 416.017 43.2642 414.456 43.2642C413.308 43.2642 412.557 43.7962 412.204 44.6065H412.11V43.3636H410.683V51H412.169V46.4659Z" fill="#B1B1B1"/>
<path d="M359.756 66.9091H357.155L353.914 68.9609V71.4155L356.912 69.5362H356.989V80H359.756V66.9091ZM362.868 80H372.2V77.7372H366.703V77.6477L368.614 75.7749C371.305 73.3203 372.028 72.093 372.028 70.6037C372.028 68.3345 370.174 66.7301 367.368 66.7301C364.619 66.7301 362.733 68.3729 362.74 70.9425H365.367C365.361 69.6896 366.153 68.9226 367.349 68.9226C368.499 68.9226 369.356 69.6385 369.356 70.7891C369.356 71.831 368.716 72.5469 367.528 73.6911L362.868 78.0057V80ZM373.726 77.6989H380.01V80H382.656V77.6989H384.279V75.4808H382.656V66.9091H379.191L373.726 75.5192V77.6989ZM380.061 75.4808H376.513V75.3786L379.958 69.9261H380.061V75.4808ZM391.256 80.2876C394.548 80.2876 396.536 77.782 396.543 73.4673C396.549 69.1847 394.536 66.7301 391.256 66.7301C387.971 66.7301 385.977 69.1783 385.97 73.4673C385.957 77.7692 387.958 80.2812 391.256 80.2876ZM391.256 77.9929C389.754 77.9929 388.783 76.4844 388.789 73.4673C388.795 70.495 389.761 68.9993 391.256 68.9993C392.746 68.9993 393.717 70.495 393.717 73.4673C393.724 76.4844 392.752 77.9929 391.256 77.9929Z" fill="#405DF6"/>
</g>
<g clip-path="url(#clip1)">
<g filter="url(#filter1_d)">
<rect x="541" y="165.173" width="184" height="66" rx="20" fill="white"/>
<path d="M541 183.173C543.209 183.173 545 184.964 545 187.173V209.173C545 211.383 543.209 213.173 541 213.173V183.173Z" fill="#83FFE6"/>
</g>
<path d="M562.119 189H563.655V185.42H565.743C568.104 185.42 569.273 183.994 569.273 182.114C569.273 180.24 568.114 178.818 565.748 178.818H562.119V189ZM563.655 184.118V180.136H565.584C567.105 180.136 567.727 180.961 567.727 182.114C567.727 183.268 567.105 184.118 565.604 184.118H563.655ZM574.15 189.154C575.815 189.154 576.994 188.334 577.332 187.091L575.925 186.837C575.656 187.558 575.01 187.926 574.165 187.926C572.892 187.926 572.037 187.101 571.997 185.629H577.426V185.102C577.426 182.343 575.776 181.264 574.045 181.264C571.918 181.264 570.516 182.885 570.516 185.232C570.516 187.603 571.898 189.154 574.15 189.154ZM572.002 184.516C572.062 183.432 572.847 182.492 574.055 182.492C575.209 182.492 575.964 183.347 575.969 184.516H572.002ZM580.562 184.466C580.562 183.248 581.308 182.552 582.342 182.552C583.351 182.552 583.963 183.213 583.963 184.322V189H585.449V184.143C585.449 182.254 584.41 181.264 582.849 181.264C581.7 181.264 580.95 181.796 580.597 182.607H580.502V181.364H579.075V189H580.562V184.466ZM587.443 181.364V189.477C587.443 190.188 587.149 190.576 586.443 190.576C586.359 190.576 586.294 190.576 586.205 190.571V191.854H586.493C588.089 191.874 588.929 191.018 588.929 189.487V181.364H587.443ZM588.178 180.185C588.691 180.185 589.118 179.788 589.118 179.3C589.118 178.813 588.691 178.411 588.178 178.411C587.661 178.411 587.239 178.813 587.239 179.3C587.239 179.788 587.661 180.185 588.178 180.185ZM595.766 185.833C595.771 187.131 594.807 187.747 593.972 187.747C593.052 187.747 592.415 187.081 592.415 186.042V181.364H590.929V186.221C590.929 188.115 591.968 189.099 593.435 189.099C594.583 189.099 595.364 188.493 595.717 187.678H595.796V189H597.258V181.364H595.766V185.833ZM601.477 189.169C602.74 189.169 603.451 188.528 603.735 187.956H603.794V189H605.246V183.929C605.246 181.707 603.496 181.264 602.283 181.264C600.901 181.264 599.628 181.821 599.131 183.213L600.528 183.531C600.747 182.989 601.303 182.467 602.303 182.467C603.262 182.467 603.754 182.969 603.754 183.835V183.869C603.754 184.411 603.198 184.401 601.825 184.56C600.379 184.729 598.897 185.107 598.897 186.842C598.897 188.344 600.026 189.169 601.477 189.169ZM601.801 187.976C600.96 187.976 600.354 187.598 600.354 186.862C600.354 186.067 601.06 185.783 601.92 185.669C602.402 185.604 603.546 185.475 603.759 185.261V186.246C603.759 187.151 603.039 187.976 601.801 187.976ZM608.712 178.818H607.226V189H608.712V178.818ZM612.934 189.169C614.197 189.169 614.908 188.528 615.192 187.956H615.251V189H616.703V183.929C616.703 181.707 614.953 181.264 613.74 181.264C612.358 181.264 611.085 181.821 610.588 183.213L611.985 183.531C612.204 182.989 612.76 182.467 613.76 182.467C614.719 182.467 615.211 182.969 615.211 183.835V183.869C615.211 184.411 614.655 184.401 613.282 184.56C611.836 184.729 610.354 185.107 610.354 186.842C610.354 188.344 611.483 189.169 612.934 189.169ZM613.258 187.976C612.417 187.976 611.811 187.598 611.811 186.862C611.811 186.067 612.517 185.783 613.377 185.669C613.859 185.604 615.003 185.475 615.216 185.261V186.246C615.216 187.151 614.496 187.976 613.258 187.976ZM620.169 184.466C620.169 183.248 620.915 182.552 621.949 182.552C622.958 182.552 623.57 183.213 623.57 184.322V189H625.056V184.143C625.056 182.254 624.017 181.264 622.456 181.264C621.308 181.264 620.557 181.796 620.204 182.607H620.11V181.364H618.683V189H620.169V184.466ZM634.32 181.364H632.754V179.534H631.267V181.364H630.149V182.557H631.267V187.066C631.262 188.453 632.321 189.124 633.494 189.099C633.967 189.094 634.285 189.005 634.459 188.94L634.191 187.712C634.091 187.732 633.907 187.777 633.669 187.777C633.186 187.777 632.754 187.618 632.754 186.758V182.557H634.32V181.364ZM638.186 189.169C639.449 189.169 640.16 188.528 640.444 187.956H640.503V189H641.955V183.929C641.955 181.707 640.205 181.264 638.992 181.264C637.61 181.264 636.337 181.821 635.84 183.213L637.237 183.531C637.456 182.989 638.012 182.467 639.012 182.467C639.971 182.467 640.463 182.969 640.463 183.835V183.869C640.463 184.411 639.907 184.401 638.534 184.56C637.088 184.729 635.606 185.107 635.606 186.842C635.606 188.344 636.735 189.169 638.186 189.169ZM638.51 187.976C637.669 187.976 637.063 187.598 637.063 186.862C637.063 186.067 637.769 185.783 638.629 185.669C639.111 185.604 640.255 185.475 640.468 185.261V186.246C640.468 187.151 639.748 187.976 638.51 187.976ZM645.421 184.466C645.421 183.248 646.192 182.552 647.251 182.552C648.275 182.552 648.887 183.203 648.887 184.322V189H650.373V184.143C650.373 182.239 649.329 181.264 647.758 181.264C646.57 181.264 645.854 181.781 645.496 182.607H645.401V178.818H643.935V189H645.421V184.466ZM657.194 185.833C657.199 187.131 656.235 187.747 655.399 187.747C654.48 187.747 653.843 187.081 653.843 186.042V181.364H652.357V186.221C652.357 188.115 653.396 189.099 654.862 189.099C656.011 189.099 656.791 188.493 657.144 187.678H657.224V189H658.686V181.364H657.194V185.833ZM662.169 184.466C662.169 183.248 662.915 182.552 663.949 182.552C664.958 182.552 665.57 183.213 665.57 184.322V189H667.056V184.143C667.056 182.254 666.017 181.264 664.456 181.264C663.308 181.264 662.557 181.796 662.204 182.607H662.11V181.364H660.683V189H662.169V184.466ZM674.242 178.818H672.755V189H674.242V178.818ZM678.464 189.169C679.727 189.169 680.438 188.528 680.721 187.956H680.781V189H682.232V183.929C682.232 181.707 680.482 181.264 679.269 181.264C677.887 181.264 676.614 181.821 676.117 183.213L677.514 183.531C677.733 182.989 678.29 182.467 679.289 182.467C680.249 182.467 680.741 182.969 680.741 183.835V183.869C680.741 184.411 680.184 184.401 678.812 184.56C677.365 184.729 675.884 185.107 675.884 186.842C675.884 188.344 677.012 189.169 678.464 189.169ZM678.787 187.976C677.947 187.976 677.34 187.598 677.34 186.862C677.34 186.067 678.046 185.783 678.906 185.669C679.388 185.604 680.532 185.475 680.746 185.261V186.246C680.746 187.151 680.025 187.976 678.787 187.976ZM685.699 178.818H684.212V189H685.699V178.818ZM692.536 185.833C692.541 187.131 691.576 187.747 690.741 187.747C689.821 187.747 689.185 187.081 689.185 186.042V181.364H687.699V186.221C687.699 188.115 688.738 189.099 690.204 189.099C691.353 189.099 692.133 188.493 692.486 187.678H692.566V189H694.027V181.364H692.536V185.833Z" fill="#B1B1B1"/>
<path d="M566.945 218.179C569.898 218.179 572.02 216.6 572.026 214.478C572.02 212.842 570.761 211.506 569.188 211.244V211.154C570.556 210.873 571.534 209.69 571.54 208.252C571.534 206.226 569.591 204.73 566.945 204.73C564.292 204.73 562.349 206.226 562.355 208.252C562.349 209.684 563.314 210.873 564.707 211.154V211.244C563.109 211.506 561.863 212.842 561.869 214.478C561.863 216.6 563.991 218.179 566.945 218.179ZM566.945 216.146C565.628 216.146 564.746 215.366 564.746 214.261C564.746 213.129 565.673 212.311 566.945 212.311C568.21 212.311 569.143 213.129 569.143 214.261C569.143 215.373 568.255 216.146 566.945 216.146ZM566.945 210.298C565.839 210.298 565.053 209.575 565.053 208.54C565.053 207.517 565.826 206.814 566.945 206.814C568.057 206.814 568.837 207.523 568.837 208.54C568.837 209.575 568.044 210.298 566.945 210.298ZM578.986 218.179C581.9 218.192 583.888 216.281 583.882 213.615C583.888 211.161 582.175 209.39 579.855 209.39C578.417 209.39 577.145 210.08 576.557 211.237H576.467C576.48 208.648 577.375 207.063 579.081 207.063C580.085 207.063 580.807 207.607 581.018 208.565H583.748C583.486 206.366 581.696 204.692 579.081 204.692C575.847 204.692 573.77 207.312 573.757 211.749C573.77 216.543 576.295 218.166 578.986 218.179ZM578.973 216.006C577.694 216.006 576.748 214.977 576.748 213.698C576.755 212.426 577.72 211.391 578.992 211.391C580.27 211.391 581.204 212.394 581.197 213.692C581.204 215.002 580.251 216.006 578.973 216.006ZM590.977 218.288C594.269 218.288 596.257 215.782 596.263 211.467C596.27 207.185 594.256 204.73 590.977 204.73C587.692 204.73 585.697 207.178 585.691 211.467C585.678 215.769 587.679 218.281 590.977 218.288ZM590.977 215.993C589.475 215.993 588.503 214.484 588.51 211.467C588.516 208.495 589.481 206.999 590.977 206.999C592.466 206.999 593.438 208.495 593.438 211.467C593.444 214.484 592.473 215.993 590.977 215.993Z" fill="#83FFE6"/>
</g>
<g clip-path="url(#clip2)">
<g filter="url(#filter2_d)">
<rect x="541" y="446.173" width="160" height="66" rx="20" fill="white"/>
<path d="M541 464.173C543.209 464.173 545 465.964 545 468.173V490.173C545 492.383 543.209 494.173 541 494.173V464.173Z" fill="#FFCB83"/>
</g>
<path d="M567.672 462.493H569.153C569.109 460.862 567.667 459.679 565.599 459.679C563.555 459.679 561.989 460.847 561.989 462.602C561.989 464.019 563.004 464.849 564.639 465.292L565.842 465.62C566.931 465.908 567.771 466.266 567.771 467.171C567.771 468.165 566.822 468.822 565.514 468.822C564.331 468.822 563.347 468.295 563.257 467.186H561.716C561.815 469.031 563.242 470.169 565.524 470.169C567.915 470.169 569.293 468.911 569.293 467.186C569.293 465.352 567.657 464.641 566.364 464.322L565.37 464.064C564.575 463.86 563.516 463.487 563.521 462.513C563.521 461.648 564.311 461.006 565.564 461.006C566.732 461.006 567.562 461.553 567.672 462.493ZM574.574 462.364H573.008V460.534H571.521V462.364H570.403V463.557H571.521V468.066C571.516 469.453 572.575 470.124 573.748 470.099C574.221 470.094 574.539 470.005 574.713 469.94L574.444 468.712C574.345 468.732 574.161 468.777 573.922 468.777C573.44 468.777 573.008 468.618 573.008 467.758V463.557H574.574V462.364ZM579.353 470.154C581.505 470.154 582.912 468.578 582.912 466.217C582.912 463.84 581.505 462.264 579.353 462.264C577.2 462.264 575.793 463.84 575.793 466.217C575.793 468.578 577.2 470.154 579.353 470.154ZM579.358 468.906C577.951 468.906 577.294 467.678 577.294 466.212C577.294 464.75 577.951 463.507 579.358 463.507C580.755 463.507 581.411 464.75 581.411 466.212C581.411 467.678 580.755 468.906 579.358 468.906ZM584.572 470H586.058V467.29L586.799 466.55L589.394 470H591.219L587.917 465.64L591.01 462.364H589.23L586.187 465.595H586.058V459.818H584.572V470ZM605.033 464.909C605.033 461.653 603.085 459.679 600.45 459.679C597.805 459.679 595.861 461.653 595.861 464.909C595.861 468.161 597.805 470.139 600.45 470.139C603.085 470.139 605.033 468.165 605.033 464.909ZM603.512 464.909C603.512 467.39 602.2 468.737 600.45 468.737C598.695 468.737 597.387 467.39 597.387 464.909C597.387 462.428 598.695 461.081 600.45 461.081C602.2 461.081 603.512 462.428 603.512 464.909ZM606.829 472.864H608.316V468.812H608.405C608.674 469.299 609.221 470.149 610.613 470.149C612.462 470.149 613.805 468.668 613.805 466.197C613.805 463.721 612.442 462.264 610.598 462.264C609.181 462.264 608.669 463.129 608.405 463.602H608.281V462.364H606.829V472.864ZM608.286 466.182C608.286 464.586 608.982 463.527 610.28 463.527C611.627 463.527 612.303 464.665 612.303 466.182C612.303 467.713 611.607 468.881 610.28 468.881C609.002 468.881 608.286 467.788 608.286 466.182ZM616.956 465.466C616.956 464.248 617.702 463.552 618.736 463.552C619.746 463.552 620.357 464.213 620.357 465.322V470H621.844V465.143C621.844 463.254 620.805 462.264 619.243 462.264C618.095 462.264 617.344 462.796 616.991 463.607H616.897V462.364H615.47V470H616.956V465.466ZM626.059 470.169C627.322 470.169 628.033 469.528 628.317 468.956H628.376V470H629.828V464.929C629.828 462.707 628.078 462.264 626.865 462.264C625.483 462.264 624.21 462.821 623.713 464.213L625.11 464.531C625.329 463.989 625.885 463.467 626.885 463.467C627.844 463.467 628.336 463.969 628.336 464.835V464.869C628.336 465.411 627.78 465.401 626.407 465.56C624.961 465.729 623.479 466.107 623.479 467.842C623.479 469.344 624.608 470.169 626.059 470.169ZM626.383 468.976C625.542 468.976 624.936 468.598 624.936 467.862C624.936 467.067 625.642 466.783 626.502 466.669C626.984 466.604 628.128 466.475 628.341 466.261V467.246C628.341 468.151 627.621 468.976 626.383 468.976ZM631.808 470H633.294V465.292C633.294 464.263 634.015 463.547 634.86 463.547C635.686 463.547 636.257 464.094 636.257 464.924V470H637.739V465.133C637.739 464.213 638.301 463.547 639.27 463.547C640.056 463.547 640.702 463.984 640.702 465.018V470H642.189V464.879C642.189 463.134 641.214 462.264 639.832 462.264C638.733 462.264 637.908 462.791 637.54 463.607H637.461C637.127 462.771 636.426 462.264 635.407 462.264C634.398 462.264 633.647 462.766 633.329 463.607H633.235V462.364H631.808V470ZM647.472 470.154C649.138 470.154 650.316 469.334 650.654 468.091L649.247 467.837C648.979 468.558 648.332 468.926 647.487 468.926C646.214 468.926 645.359 468.101 645.319 466.629H650.748V466.102C650.748 463.343 649.098 462.264 647.368 462.264C645.24 462.264 643.838 463.885 643.838 466.232C643.838 468.603 645.22 470.154 647.472 470.154ZM645.324 465.516C645.384 464.432 646.17 463.492 647.378 463.492C648.531 463.492 649.287 464.347 649.292 465.516H645.324Z" fill="#B1B1B1"/>
<path d="M562.061 499H571.393V496.737H565.896V496.648L567.808 494.775C570.499 492.32 571.221 491.093 571.221 489.604C571.221 487.335 569.367 485.73 566.561 485.73C563.812 485.73 561.927 487.373 561.933 489.942H564.56C564.554 488.69 565.347 487.923 566.542 487.923C567.692 487.923 568.549 488.638 568.549 489.789C568.549 490.831 567.91 491.547 566.721 492.691L562.061 497.006V499ZM572.92 496.699H579.203V499H581.849V496.699H583.473V494.481H581.849V485.909H578.385L572.92 494.519V496.699ZM579.254 494.481H575.706V494.379L579.152 488.926H579.254V494.481ZM590.45 499.288C593.742 499.288 595.73 496.782 595.736 492.467C595.742 488.185 593.729 485.73 590.45 485.73C587.164 485.73 585.17 488.178 585.164 492.467C585.151 496.769 587.151 499.281 590.45 499.288ZM590.45 496.993C588.948 496.993 587.976 495.484 587.982 492.467C587.989 489.495 588.954 487.999 590.45 487.999C591.939 487.999 592.911 489.495 592.911 492.467C592.917 495.484 591.945 496.993 590.45 496.993Z" fill="#FFCB83"/>
</g>
<circle cx="518.5" cy="60.5" r="11.5" fill="white" stroke="#405DF6" stroke-width="8"/>
<circle cx="518.5" cy="153.5" r="11.5" fill="white" stroke="#83FFE6" stroke-width="8"/>
<circle cx="518.5" cy="446.5" r="11.5" fill="white" stroke="#FFCB83" stroke-width="8"/>
<defs>
<filter id="filter0_d" x="297" y="-8.82654" width="260" height="166" filterUnits="userSpaceOnUse" color-interpolation-filters="sRGB">
<feFlood flood-opacity="0" result="BackgroundImageFix"/>
<feColorMatrix in="SourceAlpha" type="matrix" values="0 0 0 0 0 0 0 0 0 0 0 0 0 0 0 0 0 0 127 0"/>
<feOffset dx="14" dy="14"/>
<feGaussianBlur stdDeviation="25"/>
<feColorMatrix type="matrix" values="0 0 0 0 0 0 0 0 0 0 0 0 0 0 0 0 0 0 0.14 0"/>
<feBlend mode="normal" in2="BackgroundImageFix" result="effect1_dropShadow"/>
<feBlend mode="normal" in="SourceGraphic" in2="effect1_dropShadow" result="shape"/>
</filter>
<filter id="filter1_d" x="505" y="129.173" width="284" height="166" filterUnits="userSpaceOnUse" color-interpolation-filters="sRGB">
<feFlood flood-opacity="0" result="BackgroundImageFix"/>
<feColorMatrix in="SourceAlpha" type="matrix" values="0 0 0 0 0 0 0 0 0 0 0 0 0 0 0 0 0 0 127 0"/>
<feOffset dx="14" dy="14"/>
<feGaussianBlur stdDeviation="25"/>
<feColorMatrix type="matrix" values="0 0 0 0 0 0 0 0 0 0 0 0 0 0 0 0 0 0 0.14 0"/>
<feBlend mode="normal" in2="BackgroundImageFix" result="effect1_dropShadow"/>
<feBlend mode="normal" in="SourceGraphic" in2="effect1_dropShadow" result="shape"/>
</filter>
<filter id="filter2_d" x="505" y="410.173" width="260" height="166" filterUnits="userSpaceOnUse" color-interpolation-filters="sRGB">
<feFlood flood-opacity="0" result="BackgroundImageFix"/>
<feColorMatrix in="SourceAlpha" type="matrix" values="0 0 0 0 0 0 0 0 0 0 0 0 0 0 0 0 0 0 127 0"/>
<feOffset dx="14" dy="14"/>
<feGaussianBlur stdDeviation="25"/>
<feColorMatrix type="matrix" values="0 0 0 0 0 0 0 0 0 0 0 0 0 0 0 0 0 0 0.14 0"/>
<feBlend mode="normal" in2="BackgroundImageFix" result="effect1_dropShadow"/>
<feBlend mode="normal" in="SourceGraphic" in2="effect1_dropShadow" result="shape"/>
</filter>
<clipPath id="clip0">
<rect width="160" height="66" fill="white" transform="translate(333 27.1735)"/>
</clipPath>
<clipPath id="clip1">
<rect width="184" height="66" fill="white" transform="translate(541 165.173)"/>
</clipPath>
<clipPath id="clip2">
<rect width="160" height="66" fill="white" transform="translate(541 446.173)"/>
</clipPath>
</defs>
</svg>
