<svg width="120" height="26" viewBox="0 0 120 26" fill="none" xmlns="http://www.w3.org/2000/svg">
<path fill-rule="evenodd" clip-rule="evenodd" d="M50.1773 23.7923C49.8687 24.5418 49.1384 25.0309 48.3279 25.0309H45.9426C45.1321 25.0309 44.4018 24.5418 44.0932 23.7923L35.1273 2.01513C34.7318 1.05454 35.438 0 36.4769 0C38.8615 0 41.0064 1.45032 41.8947 3.66333L47.1175 16.6755L52.2938 3.711C53.1885 1.46995 55.3582 0 57.7713 0C58.8207 0 59.5343 1.06538 59.1347 2.03584L50.1773 23.7923ZM65.0725 23.0309C65.0725 24.1355 64.1771 25.0309 63.0725 25.0309H61.725C60.6204 25.0309 59.725 24.1355 59.725 23.0309V10.9685C59.725 8.99963 61.3211 7.40351 63.29 7.40351C64.2745 7.40351 65.0725 8.20157 65.0725 9.18602V23.0309ZM74.2566 25.4187C76.1926 25.4187 77.8275 24.8605 79.1615 23.7441C80.4954 22.6277 81.1624 21.2351 81.1624 19.5664C81.1624 18.0622 80.7197 16.8694 79.8343 15.9881C78.949 15.1067 77.6564 14.4427 75.9565 13.9962L74.3274 13.5731C73.3358 13.2911 72.84 12.868 72.84 12.3039C72.84 11.6928 73.324 11.3873 74.292 11.3873C74.8147 11.3873 75.4657 11.7002 76.0082 12.0312C76.6649 12.4319 77.52 12.4435 78.1141 11.9547L78.6998 11.4727C79.6667 10.6771 79.6617 9.20814 78.5943 8.55371C77.3617 7.79807 75.7435 7.01571 74.3274 7.01571C72.3678 7.01571 70.7565 7.51515 69.4934 8.51404C68.2303 9.51292 67.5751 10.8232 67.5279 12.4449C67.4807 13.8786 67.888 15.1008 68.7497 16.1114C69.6114 17.1221 70.8804 17.8272 72.5567 18.2267L73.7254 18.5088C74.5989 18.7203 75.1774 18.926 75.4607 19.1257C75.744 19.3255 75.8857 19.5782 75.8857 19.8837C75.8857 20.5418 75.3426 20.8708 74.2566 20.8708C73.4695 20.8708 72.5912 20.4778 71.875 20.0556C71.0051 19.5429 69.8698 19.5468 69.1214 20.2247L68.6564 20.646C67.735 21.4807 67.8016 22.9332 68.8731 23.5638C70.3544 24.4356 72.4299 25.4187 74.2566 25.4187ZM94.3837 23.8323C93.2504 24.8899 91.8811 25.4187 90.2756 25.4187C87.9619 25.4187 86.1676 24.696 84.8927 23.2505C83.6177 21.8051 82.9803 19.872 82.9803 17.4511V9.18602C82.9803 8.20157 83.7783 7.40351 84.7628 7.40351C86.7317 7.40351 88.3278 8.99963 88.3278 10.9685V16.5345C88.3278 19.2374 89.3548 20.5888 91.4089 20.5888C92.5421 20.5888 93.5337 20.0482 94.3837 18.9671V10.9685C94.3837 8.99963 95.9798 7.40351 97.9487 7.40351C98.9331 7.40351 99.7312 8.20157 99.7312 9.18602V23.0309C99.7312 24.1355 98.8358 25.0309 97.7312 25.0309H95.5823C94.9203 25.0309 94.3837 24.4943 94.3837 23.8323ZM110.473 25.4187C112.173 25.4187 113.566 24.9134 114.652 23.9028C114.652 24.5258 115.157 25.0309 115.781 25.0309H118C119.104 25.0309 120 24.1355 120 23.0309V9.40351C120 8.29894 119.104 7.40351 118 7.40351H115.745C115.142 7.40351 114.652 7.89282 114.652 8.49641C113.543 7.50927 112.15 7.01571 110.473 7.01571C107.924 7.01571 105.834 7.91471 104.205 9.7127C102.576 11.5107 101.762 13.6789 101.762 16.2172C101.762 18.7556 102.576 20.9237 104.205 22.7217C105.834 24.5197 107.924 25.4187 110.473 25.4187ZM108.402 19.3196C109.145 20.1658 110.108 20.5888 111.288 20.5888C112.681 20.5888 113.802 20.0247 114.652 18.8966V13.5026C113.779 12.3979 112.657 11.8456 111.288 11.8456C110.108 11.8456 109.145 12.2687 108.402 13.1148C107.658 13.9609 107.286 14.995 107.286 16.2172C107.286 17.4394 107.658 18.4735 108.402 19.3196Z" fill="white"/>
<path d="M6.50244 10.3447C6.50244 8.87554 7.69341 7.68457 9.16254 7.68457C10.6317 7.68457 11.8226 8.87554 11.8226 10.3447V24.2785C11.8226 24.9081 11.3122 25.4186 10.6826 25.4186C8.37396 25.4186 6.50244 23.547 6.50244 21.2384V10.3447Z" fill="white"/>
<path d="M0 2.6601C0 1.19097 1.19097 0 2.6601 0C4.12923 0 5.3202 1.19097 5.3202 2.6601V24.2217C5.3202 24.8828 4.78426 25.4187 4.12315 25.4187C1.846 25.4187 0 23.5727 0 21.2956V2.6601Z" fill="white"/>
<rect x="13.0049" y="14.7783" width="5.3202" height="10.6404" rx="2.6601" fill="white"/>
<path d="M19.5073 10.3447C19.5073 8.87554 20.6983 7.68457 22.1674 7.68457C23.6366 7.68457 24.8275 8.87554 24.8275 10.3447V21.3292C24.8275 23.5877 22.9966 25.4186 20.7381 25.4186C20.0584 25.4186 19.5073 24.8675 19.5073 24.1878V10.3447Z" fill="white"/>
<path d="M26.0098 2.6601C26.0098 1.19097 27.2007 0 28.6699 0C30.139 0 31.33 1.19097 31.33 2.6601V20.824C31.33 23.3616 29.2728 25.4187 26.7352 25.4187C26.3346 25.4187 26.0098 25.0939 26.0098 24.6932V2.6601Z" fill="white"/>
</svg>
