<svg width="120" height="26" viewBox="0 0 120 26" fill="none" xmlns="http://www.w3.org/2000/svg">
<path fill-rule="evenodd" clip-rule="evenodd" d="M50.1774 23.7923C49.8688 24.5418 49.1385 25.0309 48.328 25.0309H45.9427C45.1322 25.0309 44.4018 24.5418 44.0933 23.7923L35.1274 2.01513C34.7319 1.05454 35.4381 0 36.4769 0C38.8616 0 41.0065 1.45032 41.8948 3.66333L47.1176 16.6755L52.2938 3.711C53.1886 1.46995 55.3583 0 57.7713 0C58.8208 0 59.5343 1.06538 59.1348 2.03584L50.1774 23.7923ZM65.0726 23.0309C65.0726 24.1355 64.1772 25.0309 63.0726 25.0309H61.7251C60.6205 25.0309 59.7251 24.1355 59.7251 23.0309V10.9685C59.7251 8.99963 61.3212 7.40351 63.2901 7.40351C64.2746 7.40351 65.0726 8.20157 65.0726 9.18602V23.0309ZM74.2567 25.4187C76.1927 25.4187 77.8276 24.8605 79.1615 23.7441C80.4955 22.6277 81.1624 21.2351 81.1624 19.5664C81.1624 18.0622 80.7198 16.8694 79.8344 15.9881C78.9491 15.1067 77.6564 14.4427 75.9566 13.9962L74.3275 13.5731C73.3359 13.2911 72.8401 12.868 72.8401 12.3039C72.8401 11.6928 73.3241 11.3873 74.2921 11.3873C74.8148 11.3873 75.4658 11.7002 76.0083 12.0312C76.665 12.4319 77.5201 12.4435 78.1142 11.9547L78.6999 11.4727C79.6668 10.6771 79.6618 9.20814 78.5943 8.55371C77.3618 7.79807 75.7436 7.01571 74.3275 7.01571C72.3679 7.01571 70.7566 7.51515 69.4935 8.51404C68.2304 9.51292 67.5752 10.8232 67.528 12.4449C67.4808 13.8786 67.888 15.1008 68.7498 16.1114C69.6115 17.1221 70.8805 17.8272 72.5568 18.2267L73.7255 18.5088C74.599 18.7203 75.1775 18.926 75.4608 19.1257C75.7441 19.3255 75.8857 19.5782 75.8857 19.8837C75.8857 20.5418 75.3427 20.8708 74.2567 20.8708C73.4696 20.8708 72.5913 20.4778 71.8751 20.0556C71.0052 19.5429 69.8699 19.5468 69.1215 20.2247L68.6565 20.646C67.7351 21.4807 67.8017 22.9332 68.8732 23.5638C70.3545 24.4356 72.4299 25.4187 74.2567 25.4187ZM94.3837 23.8323C93.2505 24.8899 91.8811 25.4187 90.2757 25.4187C87.962 25.4187 86.1676 24.696 84.8927 23.2505C83.6178 21.8051 82.9804 19.872 82.9804 17.4511V9.18602C82.9804 8.20157 83.7784 7.40351 84.7629 7.40351C86.7318 7.40351 88.3279 8.99963 88.3279 10.9685V16.5345C88.3279 19.2374 89.3549 20.5888 91.4089 20.5888C92.5422 20.5888 93.5338 20.0482 94.3837 18.9671V10.9685C94.3837 8.99963 95.9799 7.40351 97.9488 7.40351C98.9332 7.40351 99.7313 8.20157 99.7313 9.18602V23.0309C99.7313 24.1355 98.8358 25.0309 97.7313 25.0309H95.5824C94.9204 25.0309 94.3837 24.4943 94.3837 23.8323ZM110.474 25.4187C112.173 25.4187 113.566 24.9134 114.652 23.9028C114.652 24.5258 115.158 25.0309 115.781 25.0309H118C119.105 25.0309 120 24.1355 120 23.0309V9.40351C120 8.29894 119.105 7.40351 118 7.40351H115.745C115.142 7.40351 114.652 7.89282 114.652 8.49641C113.543 7.50927 112.15 7.01571 110.474 7.01571C107.924 7.01571 105.834 7.91471 104.205 9.7127C102.576 11.5107 101.762 13.6789 101.762 16.2172C101.762 18.7556 102.576 20.9237 104.205 22.7217C105.834 24.5197 107.924 25.4187 110.474 25.4187ZM108.402 19.3196C109.146 20.1658 110.108 20.5888 111.288 20.5888C112.681 20.5888 113.803 20.0247 114.652 18.8966V13.5026C113.779 12.3979 112.657 11.8456 111.288 11.8456C110.108 11.8456 109.146 12.2687 108.402 13.1148C107.658 13.9609 107.286 14.995 107.286 16.2172C107.286 17.4394 107.658 18.4735 108.402 19.3196Z" fill="white"/>
<rect x="6.50244" y="7.68481" width="5.3202" height="17.734" rx="2.6601" fill="#405DF6"/>
<rect width="5.3202" height="25.4187" rx="2.6601" fill="#405DF6"/>
<rect x="13.0049" y="14.7783" width="5.3202" height="10.6404" rx="2.6601" fill="#405DF6"/>
<rect x="19.5074" y="7.68481" width="5.3202" height="17.734" rx="2.6601" fill="#405DF6"/>
<rect x="26.0099" width="5.3202" height="25.4187" rx="2.6601" fill="#405DF6"/>
</svg>
