<svg width="870" height="430" viewBox="0 0 870 430" fill="none" xmlns="http://www.w3.org/2000/svg">
<g filter="url(#filter0_d)">
<rect x="50" y="30" width="770" height="330" rx="30" fill="#405DF6"/>
<mask id="mask0" mask-type="alpha" maskUnits="userSpaceOnUse" x="50" y="30" width="770" height="330">
<rect x="50" y="30" width="770" height="330" rx="30" fill="white"/>
</mask>
<g mask="url(#mask0)">
<path d="M651 105C651 88.4315 664.431 75 681 75H830V315H681C664.431 315 651 301.569 651 285V105Z" fill="white"/>
<mask id="mask1" mask-type="alpha" maskUnits="userSpaceOnUse" x="651" y="75" width="179" height="240">
<path d="M651 105C651 88.4315 664.431 75 681 75H830V315H681C664.431 315 651 301.569 651 285V105Z" fill="white"/>
</mask>
<g mask="url(#mask1)">
<rect x="668" y="128" width="8" height="28" rx="3" fill="#83FFE6"/>
<rect x="732" y="118" width="8" height="38" rx="3" fill="#83FFE6"/>
<rect x="780" y="107" width="8" height="49" rx="3" fill="#83FFE6"/>
<rect x="684" y="96" width="8" height="60" rx="3" fill="#83FFE6"/>
<rect x="716" y="138" width="8" height="18" rx="3" fill="#83FFE6"/>
<rect x="764" y="147" width="8" height="9" rx="3" fill="#83FFE6"/>
<rect x="796" y="133" width="8" height="23" rx="3" fill="#83FFE6"/>
<rect x="812" y="133" width="8" height="23" rx="3" fill="#83FFE6"/>
<rect width="8" height="23" rx="3" transform="matrix(1 0 0 -1 700 179)" fill="#FFAA83"/>
<rect width="8" height="23" rx="3" transform="matrix(1 0 0 -1 748 179)" fill="#FFAA83"/>
<path fill-rule="evenodd" clip-rule="evenodd" d="M651.34 307C651.34 307 675.284 304.287 685.453 294.189C695.622 284.091 697.288 257.535 710.422 254.424C723.556 251.314 728.672 287.873 740.694 281.108C752.716 274.342 761.338 184.1 785.907 180.642C810.475 177.184 811.581 282.405 845.488 266.36C866.388 256.47 873.335 208.642 880.34 172C884.699 149.195 880.34 315 880.34 315H651.34V307Z" fill="#FFD3E6"/>
<path d="M651.34 307C651.34 307 675.284 304.287 685.453 294.189C695.622 284.091 697.288 257.535 710.422 254.424C723.556 251.314 728.672 287.873 740.694 281.108C752.716 274.342 761.338 184.1 785.907 180.642C810.475 177.184 811.581 282.405 845.488 266.36C866.388 256.47 873.335 208.642 880.34 172" stroke="#FF83B8" stroke-width="8" stroke-linecap="round" stroke-linejoin="round"/>
</g>
</g>
</g>
<path opacity="0.5" d="M435 194L647 194.46" stroke="#FF83B8" stroke-width="8" stroke-linecap="round" stroke-linejoin="round"/>
<path opacity="0.5" d="M435 183H541L569.23 206H614.734L628.964 194.406H647" stroke="#83FFE6" stroke-width="8" stroke-linecap="round" stroke-linejoin="round"/>
<path opacity="0.5" d="M435 206H541L569.23 183H614.734L628.964 194.594H647" stroke="#FFAA83" stroke-width="8" stroke-linecap="round" stroke-linejoin="round"/>
<path opacity="0.5" d="M141 194.46L435 194" stroke="#FF83B8" stroke-width="8" stroke-linecap="round" stroke-linejoin="round"/>
<path opacity="0.5" d="M141 107.455C141 107.455 187.74 169.77 268.352 182C348.964 194.23 436 194.455 436 194.455" stroke="#83FFE6" stroke-width="8" stroke-linecap="round" stroke-linejoin="round"/>
<path opacity="0.5" d="M141 281.455C141 281.455 187.74 219.14 268.352 206.91C348.964 194.68 436 194.455 436 194.455" stroke="#FFAA83" stroke-width="8" stroke-linecap="round" stroke-linejoin="round"/>
<path opacity="0.5" d="M257 281C257 281 278.024 221.007 326 205.5C375.5 189.5 436 194 436 194" stroke="#83D2FF" stroke-width="8" stroke-linecap="round" stroke-linejoin="round"/>
<g filter="url(#filter1_d)">
<circle cx="258" cy="288" r="30" fill="#83D2FF"/>
</g>
<path d="M271.5 285.5V279.25C271.5 277.872 270.378 276.75 269 276.75H247C245.622 276.75 244.5 277.872 244.5 279.25V291.75C244.5 293.128 245.622 294.25 247 294.25H269C270.378 294.25 271.5 293.128 271.5 291.75C271.5 291.06 272.06 290.5 272.75 290.5C273.44 290.5 274 291.06 274 291.75C274 294.507 271.757 296.75 269 296.75H259.25V299.242H263.625C264.315 299.242 264.875 299.802 264.875 300.492C264.875 301.183 264.315 301.742 263.625 301.742H252.375C251.685 301.742 251.125 301.183 251.125 300.492C251.125 299.802 251.685 299.242 252.375 299.242H256.75V296.75H247C244.243 296.75 242 294.507 242 291.75V279.25C242 276.493 244.243 274.25 247 274.25H269C271.757 274.25 274 276.493 274 279.25V285.5C274 286.19 273.44 286.75 272.75 286.75C272.06 286.75 271.5 286.19 271.5 285.5ZM254.438 282.375C254.438 281.686 254.998 281.125 255.688 281.125C256.378 281.125 256.938 280.565 256.938 279.875C256.938 279.185 256.378 278.625 255.688 278.625C253.62 278.625 251.938 280.307 251.938 282.375V283C251.938 283.689 251.377 284.25 250.688 284.25C249.997 284.25 249.438 284.81 249.438 285.5C249.438 286.19 249.997 286.75 250.688 286.75C251.377 286.75 251.938 287.311 251.938 288V288.625C251.938 290.693 253.62 292.375 255.688 292.375C256.378 292.375 256.938 291.815 256.938 291.125C256.938 290.435 256.378 289.875 255.688 289.875C254.998 289.875 254.438 289.314 254.438 288.625V288C254.438 287.04 254.075 286.164 253.479 285.5C254.075 284.836 254.438 283.96 254.438 283V282.375ZM261.938 288.625C261.938 289.314 261.377 289.875 260.688 289.875C259.997 289.875 259.438 290.435 259.438 291.125C259.438 291.815 259.997 292.375 260.688 292.375C262.755 292.375 264.438 290.693 264.438 288.625V288C264.438 287.311 264.998 286.75 265.688 286.75C266.378 286.75 266.938 286.19 266.938 285.5C266.938 284.81 266.378 284.25 265.688 284.25C264.998 284.25 264.438 283.689 264.438 283V282.375C264.438 280.307 262.755 278.625 260.688 278.625C259.997 278.625 259.438 279.185 259.438 279.875C259.438 280.565 259.997 281.125 260.688 281.125C261.377 281.125 261.938 281.686 261.938 282.375V283C261.938 283.96 262.3 284.836 262.896 285.5C262.3 286.164 261.938 287.04 261.938 288V288.625Z" fill="white"/>
<path opacity="0.5" d="M255 108C255 108 276.024 167.631 324 183.044C373.5 198.948 434 194.475 434 194.475" stroke="#6735F4" stroke-width="8" stroke-linecap="round" stroke-linejoin="round"/>
<g filter="url(#filter2_d)">
<circle cx="143" cy="108" r="30" fill="#83FFE6"/>
</g>
<path d="M154.311 114.176C155.007 114.176 155.571 113.612 155.571 112.916V97.04C155.571 94.2609 153.31 92 150.531 92H139.089C137.783 92 136.508 92.5318 135.589 93.4588L131.428 97.6567C130.507 98.5857 130 99.8179 130 101.126V119.216C130 121.995 132.261 124.256 135.04 124.256H150.531C153.31 124.256 155.571 121.995 155.571 119.216C155.571 118.52 155.007 117.956 154.311 117.956C153.615 117.956 153.051 118.52 153.051 119.216C153.051 120.605 151.921 121.736 150.531 121.736H135.04C133.651 121.736 132.52 120.605 132.52 119.216V102.647H136.237C138.669 102.647 140.647 100.669 140.647 98.237C140.647 97.541 140.083 96.977 139.387 96.977C138.691 96.977 138.127 97.541 138.127 98.237C138.127 99.2792 137.279 100.127 136.237 100.127H132.736C132.853 99.8716 133.014 99.6358 133.218 99.4306L137.379 95.2329C137.828 94.7799 138.451 94.52 139.089 94.52H150.531C151.921 94.52 153.051 95.6506 153.051 97.04V112.916C153.051 113.612 153.615 114.176 154.311 114.176Z" fill="white"/>
<g filter="url(#filter3_d)">
<circle cx="258" cy="108" r="30" fill="#6735F4"/>
</g>
<g clip-path="url(#clip0)">
<path d="M264.318 111.062L265.079 107.368C265.157 106.989 265.061 106.594 264.816 106.294C264.571 105.993 264.204 105.819 263.816 105.819H253.445C253.042 103.844 251.301 102.398 249.25 102.398C248.538 102.398 247.961 102.975 247.961 103.687C247.961 104.399 248.538 104.976 249.25 104.976C250.117 104.976 250.845 105.626 250.944 106.488C250.948 106.531 250.955 106.573 250.965 106.615L251.939 111.11C251.94 111.113 251.94 111.116 251.941 111.119C252.34 112.897 253.892 114.139 255.714 114.139H260.532C262.351 114.139 263.943 112.847 264.318 111.062ZM261.794 110.536C261.669 111.13 261.138 111.561 260.532 111.561H255.714C255.108 111.561 254.592 111.148 254.457 110.558L253.989 108.397H262.235L261.794 110.536ZM270.133 92.2891H244.867C242.735 92.2891 241 94.0238 241 96.1562V117.555C241 120.398 243.313 122.711 246.156 122.711H268.844C271.687 122.711 274 120.398 274 117.555C274 116.843 273.423 116.266 272.711 116.266C271.999 116.266 271.422 116.843 271.422 117.555C271.422 118.976 270.265 120.133 268.844 120.133H246.156C244.735 120.133 243.578 118.976 243.578 117.555V100.088H271.422V111.109C271.422 111.821 271.999 112.398 272.711 112.398C273.423 112.398 274 111.821 274 111.109V96.1562C274 94.0238 272.265 92.2891 270.133 92.2891ZM264.912 94.8672C265.623 94.8672 266.201 95.4455 266.201 96.1562C266.201 96.867 265.623 97.4453 264.912 97.4453C264.201 97.4453 263.623 96.867 263.623 96.1562C263.623 95.4455 264.201 94.8672 264.912 94.8672ZM271.357 96.1562C271.357 96.867 270.779 97.4453 270.068 97.4453C269.358 97.4453 268.779 96.867 268.779 96.1562C268.779 95.4455 269.358 94.8672 270.068 94.8672C270.779 94.8672 271.357 95.4455 271.357 96.1562ZM243.578 96.1562C243.578 95.4455 244.156 94.8672 244.867 94.8672H261.267C261.123 95.2708 261.045 95.7043 261.045 96.1562C261.045 96.6323 261.132 97.0883 261.29 97.5098H243.578V96.1562ZM255.502 115.428C256.214 115.428 256.791 116.005 256.791 116.717C256.791 117.429 256.214 118.006 255.502 118.006C254.79 118.006 254.213 117.429 254.213 116.717C254.213 116.005 254.79 115.428 255.502 115.428ZM260.723 115.428C261.435 115.428 262.012 116.005 262.012 116.717C262.012 117.429 261.435 118.006 260.723 118.006C260.011 118.006 259.434 117.429 259.434 116.717C259.434 116.005 260.011 115.428 260.723 115.428Z" fill="white"/>
</g>
<g filter="url(#filter4_d)">
<circle cx="143" cy="198" r="30" fill="#FF83B8"/>
</g>
<path d="M157.37 197.955C157.4 197.718 157.415 197.478 157.415 197.238C157.415 194.214 155.078 191.726 152.116 191.484C150.366 188.127 146.9 186 143.065 186C140.523 186 138.087 186.941 136.206 188.648C134.586 190.12 133.491 192.054 133.062 194.173C131.53 194.503 130.131 195.295 129.049 196.462C127.728 197.887 127 199.742 127 201.687C127 205.925 130.448 209.373 134.686 209.373L152.478 209.373C152.501 209.373 152.567 209.373 152.578 209.373C153.672 209.373 154.755 209.104 155.709 208.596C156.323 208.268 156.556 207.505 156.229 206.891C155.901 206.277 155.138 206.044 154.524 206.372C153.925 206.691 153.27 206.853 152.578 206.853L152.492 206.853C152.488 206.853 152.485 206.853 152.481 206.853L134.703 206.853C134.701 206.853 134.698 206.853 134.696 206.853L134.681 206.853C131.834 206.85 129.52 204.534 129.52 201.687C129.52 199.013 131.605 196.751 134.267 196.538C134.873 196.49 135.358 196.015 135.42 195.411C135.823 191.482 139.11 188.52 143.065 188.52C145.686 188.52 148.079 189.84 149.484 191.974C147.449 192.875 146.026 194.913 146.026 197.277C146.026 197.973 146.59 198.537 147.286 198.537C147.982 198.537 148.546 197.973 148.546 197.277C148.546 195.471 150.016 194.001 151.822 194.001C151.85 194.001 151.878 193.999 151.905 193.997C153.576 194.131 154.895 195.533 154.895 197.238C154.895 197.521 154.858 197.804 154.785 198.079C154.658 198.555 154.82 199.061 155.2 199.375C156.176 200.181 156.736 201.368 156.736 202.632C156.736 203.328 157.3 203.892 157.996 203.892C158.692 203.892 159.256 203.328 159.256 202.632C159.256 200.872 158.577 199.206 157.37 197.955Z" fill="white"/>
<g filter="url(#filter5_d)">
<circle cx="143" cy="288" r="30" fill="#FFAA83"/>
</g>
<path fill-rule="evenodd" clip-rule="evenodd" d="M157.623 283.088C158.625 283.988 159.256 285.293 159.256 286.742V289.514C159.256 290.963 158.625 292.268 157.623 293.168C158.625 294.068 159.256 295.373 159.256 296.822V299.342C159.256 300.038 158.692 300.602 157.996 300.602C157.3 300.602 156.736 300.038 156.736 299.342V296.822C156.736 295.502 155.662 294.428 154.342 294.428C153.646 294.428 153.082 293.864 153.082 293.168C153.082 292.472 153.646 291.908 154.342 291.908C155.662 291.908 156.736 290.834 156.736 289.514V286.742C156.736 285.422 155.662 284.348 154.342 284.348C153.646 284.348 153.082 283.784 153.082 283.088C153.082 282.392 153.646 281.828 154.342 281.828C155.662 281.828 156.736 280.754 156.736 279.434V276.914C156.736 275.594 155.662 274.52 154.342 274.52H131.914C130.594 274.52 129.52 275.594 129.52 276.914V279.434C129.52 280.754 130.594 281.828 131.914 281.828C131.922 281.828 131.931 281.829 131.939 281.829H131.939H131.939C131.944 281.83 131.95 281.83 131.956 281.83C131.968 281.83 131.979 281.83 131.991 281.829C132.007 281.829 132.024 281.828 132.04 281.828H148.042C148.738 281.828 149.302 282.392 149.302 283.088C149.302 283.784 148.738 284.348 148.042 284.348H132.04C130.651 284.348 129.52 285.479 129.52 286.868V289.514C129.52 290.834 130.594 291.908 131.914 291.908H148.042C148.738 291.908 149.302 292.472 149.302 293.168C149.302 293.864 148.738 294.428 148.042 294.428H131.914C130.594 294.428 129.52 295.502 129.52 296.822V299.342C129.52 300.662 130.594 301.736 131.914 301.736H154.342C155.038 301.736 155.602 302.3 155.602 302.996C155.602 303.692 155.038 304.256 154.342 304.256H131.914C129.204 304.256 127 302.051 127 299.342V296.822C127 295.373 127.631 294.068 128.633 293.168C127.631 292.268 127 290.963 127 289.514V286.868C127 285.383 127.646 284.046 128.672 283.122C127.648 282.221 127 280.902 127 279.434V276.914C127 274.205 129.204 272 131.914 272H154.342C157.052 272 159.256 274.205 159.256 276.914V279.434C159.256 280.883 158.625 282.188 157.623 283.088ZM132.04 298.082C132.04 298.778 132.604 299.342 133.3 299.342C133.996 299.342 134.56 298.778 134.56 298.082C134.56 297.386 133.996 296.822 133.3 296.822C132.604 296.822 132.04 297.386 132.04 298.082ZM133.3 289.325C132.604 289.325 132.04 288.761 132.04 288.065C132.04 287.369 132.604 286.805 133.3 286.805C133.996 286.805 134.56 287.369 134.56 288.065C134.56 288.761 133.996 289.325 133.3 289.325ZM132.04 278.174C132.04 278.87 132.604 279.434 133.3 279.434C133.996 279.434 134.56 278.87 134.56 278.174C134.56 277.478 133.996 276.914 133.3 276.914C132.604 276.914 132.04 277.478 132.04 278.174ZM137.71 299.342C137.014 299.342 136.45 298.778 136.45 298.082C136.45 297.386 137.014 296.822 137.71 296.822C138.406 296.822 138.97 297.386 138.97 298.082C138.97 298.778 138.406 299.342 137.71 299.342ZM136.45 288.065C136.45 288.761 137.014 289.325 137.71 289.325C138.406 289.325 138.97 288.761 138.97 288.065C138.97 287.369 138.406 286.805 137.71 286.805C137.014 286.805 136.45 287.369 136.45 288.065ZM137.71 279.434C137.014 279.434 136.45 278.87 136.45 278.174C136.45 277.478 137.014 276.914 137.71 276.914C138.406 276.914 138.97 277.478 138.97 278.174C138.97 278.87 138.406 279.434 137.71 279.434Z" fill="white"/>
<circle cx="435" cy="195" r="40" fill="white" stroke="#AFBCFF" stroke-width="6"/>
<path fill-rule="evenodd" clip-rule="evenodd" d="M419 184.66C419 183.191 420.191 182 421.66 182C423.129 182 424.32 183.191 424.32 184.66V204.759C424.32 206.228 423.129 207.419 421.66 207.419C420.191 207.419 419 206.228 419 204.759V184.66ZM425.502 192.345C425.502 190.876 426.693 189.685 428.163 189.685C429.632 189.685 430.823 190.876 430.823 192.345V204.759C430.823 206.228 429.632 207.419 428.163 207.419C426.693 207.419 425.502 206.228 425.502 204.759V192.345ZM434.665 196.778C433.196 196.778 432.005 197.969 432.005 199.438V204.759C432.005 206.228 433.196 207.419 434.665 207.419C436.134 207.419 437.325 206.228 437.325 204.759V199.438C437.325 197.969 436.134 196.778 434.665 196.778ZM438.507 192.345C438.507 190.876 439.698 189.685 441.167 189.685C442.637 189.685 443.828 190.876 443.828 192.345V204.759C443.828 206.228 442.637 207.419 441.167 207.419C439.698 207.419 438.507 206.228 438.507 204.759V192.345ZM447.67 182C446.201 182 445.01 183.191 445.01 184.66V204.759C445.01 206.228 446.201 207.419 447.67 207.419C449.139 207.419 450.33 206.228 450.33 204.759V184.66C450.33 183.191 449.139 182 447.67 182Z" fill="#405DF6"/>
<path fill-rule="evenodd" clip-rule="evenodd" d="M416.371 265.851C416.157 266.379 415.644 266.725 415.074 266.725H413.434C412.864 266.725 412.35 266.379 412.136 265.851L405.878 250.396C405.608 249.728 406.099 249 406.819 249C408.485 249 409.982 250.018 410.594 251.568L414.241 260.809L417.857 251.602C418.473 250.032 419.987 249 421.673 249C422.401 249 422.897 249.736 422.624 250.41L416.371 265.851ZM426.746 265.325C426.746 266.099 426.119 266.725 425.346 266.725H424.422C423.649 266.725 423.022 266.099 423.022 265.325V256.726C423.022 255.354 424.133 254.243 425.505 254.243C426.19 254.243 426.746 254.799 426.746 255.484V265.325ZM433.142 267C434.491 267 435.629 266.605 436.558 265.814C437.487 265.024 437.952 264.037 437.952 262.856C437.952 261.791 437.644 260.946 437.027 260.322C436.41 259.698 435.51 259.227 434.326 258.911L433.192 258.612C432.501 258.412 432.156 258.112 432.156 257.713C432.156 257.28 432.493 257.064 433.167 257.064C433.527 257.064 433.974 257.28 434.349 257.512C434.814 257.798 435.421 257.807 435.84 257.457L436.26 257.105C436.925 256.548 436.922 255.533 436.188 255.072C435.326 254.533 434.187 253.968 433.192 253.968C431.827 253.968 430.705 254.322 429.825 255.029C428.945 255.736 428.489 256.664 428.456 257.813C428.423 258.828 428.707 259.693 429.307 260.409C429.907 261.125 430.791 261.624 431.958 261.907L432.772 262.107C433.381 262.257 433.784 262.402 433.981 262.544C434.178 262.685 434.277 262.864 434.277 263.08C434.277 263.546 433.899 263.779 433.142 263.779C432.6 263.779 431.997 263.507 431.501 263.212C430.886 262.846 430.079 262.849 429.553 263.334L429.219 263.642C428.586 264.225 428.632 265.229 429.37 265.672C430.403 266.293 431.86 267 433.142 267ZM447.16 265.877C446.37 266.626 445.417 267 444.299 267C442.687 267 441.438 266.488 440.55 265.465C439.662 264.441 439.218 263.072 439.218 261.358V255.484C439.218 254.799 439.774 254.243 440.459 254.243C441.831 254.243 442.942 255.354 442.942 256.726V260.709C442.942 262.623 443.657 263.58 445.088 263.58C445.877 263.58 446.568 263.197 447.16 262.431V256.726C447.16 255.354 448.271 254.243 449.643 254.243C450.328 254.243 450.884 254.799 450.884 255.484V265.325C450.884 266.099 450.257 266.725 449.484 266.725H448.009C447.54 266.725 447.16 266.345 447.16 265.877ZM458.365 267C459.549 267 460.519 266.642 461.276 265.926C461.276 266.368 461.633 266.725 462.075 266.725H463.6C464.373 266.725 465 266.099 465 265.325V255.643C465 254.87 464.373 254.243 463.6 254.243H462.05C461.622 254.243 461.276 254.589 461.276 255.017C460.503 254.318 459.533 253.968 458.365 253.968C456.59 253.968 455.134 254.605 454 255.878C452.865 257.151 452.298 258.687 452.298 260.484C452.298 262.282 452.865 263.817 454 265.09C455.134 266.363 456.59 267 458.365 267ZM456.923 262.681C457.44 263.28 458.111 263.58 458.933 263.58C459.903 263.58 460.684 263.18 461.276 262.381V258.562C460.667 257.779 459.886 257.388 458.933 257.388C458.111 257.388 457.44 257.688 456.923 258.287C456.405 258.886 456.146 259.619 456.146 260.484C456.146 261.35 456.405 262.082 456.923 262.681Z" fill="white"/>
<defs>
<filter id="filter0_d" x="0" y="0" width="870" height="430" filterUnits="userSpaceOnUse" color-interpolation-filters="sRGB">
<feFlood flood-opacity="0" result="BackgroundImageFix"/>
<feColorMatrix in="SourceAlpha" type="matrix" values="0 0 0 0 0 0 0 0 0 0 0 0 0 0 0 0 0 0 127 0"/>
<feOffset dy="20"/>
<feGaussianBlur stdDeviation="25"/>
<feColorMatrix type="matrix" values="0 0 0 0 0 0 0 0 0 0 0 0 0 0 0 0 0 0 0.1 0"/>
<feBlend mode="normal" in2="BackgroundImageFix" result="effect1_dropShadow"/>
<feBlend mode="normal" in="SourceGraphic" in2="effect1_dropShadow" result="shape"/>
</filter>
<filter id="filter1_d" x="178" y="208" width="160" height="160" filterUnits="userSpaceOnUse" color-interpolation-filters="sRGB">
<feFlood flood-opacity="0" result="BackgroundImageFix"/>
<feColorMatrix in="SourceAlpha" type="matrix" values="0 0 0 0 0 0 0 0 0 0 0 0 0 0 0 0 0 0 127 0"/>
<feOffset/>
<feGaussianBlur stdDeviation="25"/>
<feColorMatrix type="matrix" values="0 0 0 0 0.513726 0 0 0 0 1 0 0 0 0 0.901961 0 0 0 0.3 0"/>
<feBlend mode="normal" in2="BackgroundImageFix" result="effect1_dropShadow"/>
<feBlend mode="normal" in="SourceGraphic" in2="effect1_dropShadow" result="shape"/>
</filter>
<filter id="filter2_d" x="63" y="28" width="160" height="160" filterUnits="userSpaceOnUse" color-interpolation-filters="sRGB">
<feFlood flood-opacity="0" result="BackgroundImageFix"/>
<feColorMatrix in="SourceAlpha" type="matrix" values="0 0 0 0 0 0 0 0 0 0 0 0 0 0 0 0 0 0 127 0"/>
<feOffset/>
<feGaussianBlur stdDeviation="25"/>
<feColorMatrix type="matrix" values="0 0 0 0 0.513726 0 0 0 0 1 0 0 0 0 0.901961 0 0 0 0.3 0"/>
<feBlend mode="normal" in2="BackgroundImageFix" result="effect1_dropShadow"/>
<feBlend mode="normal" in="SourceGraphic" in2="effect1_dropShadow" result="shape"/>
</filter>
<filter id="filter3_d" x="178" y="28" width="160" height="160" filterUnits="userSpaceOnUse" color-interpolation-filters="sRGB">
<feFlood flood-opacity="0" result="BackgroundImageFix"/>
<feColorMatrix in="SourceAlpha" type="matrix" values="0 0 0 0 0 0 0 0 0 0 0 0 0 0 0 0 0 0 127 0"/>
<feOffset/>
<feGaussianBlur stdDeviation="25"/>
<feColorMatrix type="matrix" values="0 0 0 0 0.403922 0 0 0 0 0.207843 0 0 0 0 0.956863 0 0 0 0.3 0"/>
<feBlend mode="normal" in2="BackgroundImageFix" result="effect1_dropShadow"/>
<feBlend mode="normal" in="SourceGraphic" in2="effect1_dropShadow" result="shape"/>
</filter>
<filter id="filter4_d" x="63" y="118" width="160" height="160" filterUnits="userSpaceOnUse" color-interpolation-filters="sRGB">
<feFlood flood-opacity="0" result="BackgroundImageFix"/>
<feColorMatrix in="SourceAlpha" type="matrix" values="0 0 0 0 0 0 0 0 0 0 0 0 0 0 0 0 0 0 127 0"/>
<feOffset/>
<feGaussianBlur stdDeviation="25"/>
<feColorMatrix type="matrix" values="0 0 0 0 1 0 0 0 0 0.513726 0 0 0 0 0.721569 0 0 0 0.3 0"/>
<feBlend mode="normal" in2="BackgroundImageFix" result="effect1_dropShadow"/>
<feBlend mode="normal" in="SourceGraphic" in2="effect1_dropShadow" result="shape"/>
</filter>
<filter id="filter5_d" x="63" y="208" width="160" height="160" filterUnits="userSpaceOnUse" color-interpolation-filters="sRGB">
<feFlood flood-opacity="0" result="BackgroundImageFix"/>
<feColorMatrix in="SourceAlpha" type="matrix" values="0 0 0 0 0 0 0 0 0 0 0 0 0 0 0 0 0 0 127 0"/>
<feOffset/>
<feGaussianBlur stdDeviation="25"/>
<feColorMatrix type="matrix" values="0 0 0 0 1 0 0 0 0 0.666667 0 0 0 0 0.513726 0 0 0 0.3 0"/>
<feBlend mode="normal" in2="BackgroundImageFix" result="effect1_dropShadow"/>
<feBlend mode="normal" in="SourceGraphic" in2="effect1_dropShadow" result="shape"/>
</filter>
<clipPath id="clip0">
<rect width="33" height="33" fill="white" transform="translate(241 91)"/>
</clipPath>
</defs>
</svg>
